<svg width="510" height="510" viewBox="0 0 510 510" fill="none" xmlns="http://www.w3.org/2000/svg">
<g clip-path="url(#clip0_26_116)">
<path d="M-6.10352e-05 255C-0.0887451 315.194 21.2031 373.462 60.0794 419.418C61.4911 421.094 62.9294 422.744 64.394 424.385C81.6307 443.77 101.709 460.428 123.944 473.788C129.044 476.85 134.256 479.735 139.579 482.444C140.118 482.718 140.665 482.991 141.203 483.256C141.847 483.582 142.5 483.9 143.153 484.218C156.624 490.811 170.656 496.191 185.082 500.294C186.582 500.718 188.085 501.129 189.591 501.529C208.568 506.551 228.063 509.36 247.685 509.903C248.709 509.929 249.715 509.947 250.685 509.965C251.029 509.974 251.365 509.982 251.7 509.982C252.803 509.991 253.897 510 255 510C275.679 510.015 296.283 507.518 316.359 502.562C318.371 502.068 320.373 501.547 322.368 501C332.871 498.132 343.178 494.587 353.223 490.385C358.518 488.179 363.718 485.8 368.823 483.247C369.979 482.665 371.135 482.082 372.273 481.482C372.759 481.244 373.235 480.988 373.712 480.741C400.925 466.378 425.329 447.231 445.756 424.218C447.168 422.638 448.553 421.032 449.921 419.418C472.427 392.733 489.215 361.712 499.246 328.275C509.276 294.839 512.335 259.699 508.233 225.032C504.131 190.365 492.956 156.91 475.399 126.737C457.842 96.5652 434.277 70.3187 406.165 49.6235C404.718 48.5559 403.262 47.4971 401.788 46.4647C401.497 46.2618 401.206 46.0588 400.915 45.8559C375.024 27.72 345.963 14.5965 315.238 7.16469C313.491 6.73234 311.744 6.32647 309.979 5.94705C276.699 -1.33263 242.306 -1.93546 208.791 4.17352C207.035 4.49999 205.279 4.83528 203.532 5.19705C173.082 11.4428 144.04 23.2361 117.856 39.9882C117.273 40.3588 116.691 40.7294 116.109 41.1176C114.935 41.8765 113.762 42.6529 112.606 43.4382C77.9199 66.7573 49.5049 98.2533 29.8671 135.148C10.2293 172.044 -0.0279541 213.204 -6.10352e-05 255Z" fill="#F2F2F2"/>
<path d="M319.412 386.921L400.915 394.156L401.788 394.235V46.4647C401.497 46.2618 401.206 46.0588 400.915 45.8559C383.929 33.9747 365.554 24.2141 346.2 16.7912L342.035 74.2323L341.656 79.4912L337.535 136.456L336.265 153.979L319.562 384.891L319.412 386.921Z" fill="#CCCCCC"/>
<path d="M117.856 39.9882C117.274 40.3588 116.691 40.7294 116.109 41.1176V394.235L117.856 394.076L198.477 386.921L198.327 384.891L181.624 153.979L180.353 136.456L176.232 79.4912L175.853 74.2323L171.485 13.9941C152.65 20.523 134.65 29.2478 117.856 39.9882Z" fill="#CCCCCC"/>
<path d="M117.856 39.9883V399.053C117.856 405.944 122.603 411.547 128.444 411.547H390.326C395.162 411.547 399.265 407.7 400.509 402.45C400.78 401.338 400.917 400.198 400.915 399.053V45.8559C401.206 46.0589 401.497 46.2618 401.788 46.4647C403.262 47.4971 404.718 48.5559 406.165 49.6235V399.053C406.243 404.287 404.288 409.348 400.712 413.171C398.836 415.135 396.464 416.556 393.847 417.282C392.7 417.594 391.516 417.752 390.326 417.75H128.444C127.252 417.751 126.065 417.594 124.915 417.282C117.874 415.385 112.606 407.938 112.606 399.053V43.4382C113.762 42.6529 114.935 41.8765 116.109 41.1177C116.691 40.7294 117.274 40.3588 117.856 39.9883Z" fill="#CCCCCC"/>
<path d="M115.229 74.2359H403.54V79.4938H115.229V74.2359Z" fill="#CCCCCC"/>
<path d="M315.238 7.16469C313.491 6.73234 311.744 6.32646 309.979 5.94705V148.721H315.238V7.16469Z" fill="#CCCCCC"/>
<path d="M208.791 4.17352C207.035 4.49999 205.279 4.83529 203.532 5.19706V148.721H208.791V4.17352Z" fill="#CCCCCC"/>
<path d="M82.3676 384.891H427.641C433.917 384.891 439.937 387.384 444.375 391.822C448.813 396.26 451.306 402.28 451.306 408.556C451.306 414.832 448.813 420.851 444.375 425.289C439.937 429.727 433.917 432.221 427.641 432.221H82.3676C79.0069 432.221 75.6848 431.505 72.6233 430.118C69.5617 428.732 66.8314 426.708 64.6147 424.182C63.6112 423.04 62.719 421.805 61.95 420.494C61.3547 419.489 60.8384 418.438 60.4059 417.353C58.9645 413.763 58.4257 409.874 58.837 406.027C59.2482 402.18 60.5969 398.493 62.7647 395.289C64.9326 392.085 67.8533 389.461 71.271 387.648C74.6887 385.836 78.4989 384.889 82.3676 384.891Z" fill="#CCCCCC"/>
<path d="M115.229 136.455H401.787V153.981H115.229V136.455Z" fill="#CCCCCC"/>
<path d="M261.137 131.197H255.879C254.613 131.197 253.359 131.446 252.19 131.931C251.02 132.415 249.958 133.125 249.063 134.02C248.168 134.915 247.457 135.978 246.973 137.148C246.489 138.317 246.239 139.571 246.239 140.837H270.776C270.776 138.28 269.761 135.828 267.953 134.02C266.145 132.213 263.693 131.197 261.137 131.197H261.137Z" fill="#CCCCCC"/>
<path d="M60.0795 419.418C67.7447 428.5 76.0355 437.036 84.8913 444.962H425.109C433.965 437.036 442.255 428.5 449.921 419.418H60.0795Z" fill="#3F3D56"/>
<path d="M226.518 330.944H283.8C284.109 330.941 284.416 330.988 284.709 331.085C285.331 331.277 285.875 331.664 286.261 332.188C286.646 332.712 286.854 333.346 286.853 333.997V424.491H223.456V333.997C223.456 333.596 223.536 333.198 223.69 332.827C223.844 332.456 224.07 332.12 224.354 331.836C224.638 331.552 224.976 331.328 225.347 331.175C225.718 331.022 226.116 330.943 226.518 330.944ZM248.197 375.591C248.195 377.059 248.679 378.486 249.574 379.65C250.427 380.779 251.614 381.613 252.966 382.032C254.318 382.451 255.768 382.436 257.111 381.987C258.454 381.539 259.622 380.681 260.451 379.533C261.28 378.386 261.728 377.007 261.732 375.591V365.091C261.716 363.307 260.996 361.602 259.728 360.346C258.461 359.091 256.749 358.386 254.965 358.386C253.181 358.386 251.469 359.091 250.201 360.346C248.934 361.602 248.214 363.307 248.197 365.091V375.591Z" fill="#2F2E41"/>
<path d="M287.047 421.597V430.324C287.047 430.776 286.868 431.21 286.549 431.531C286.23 431.852 285.797 432.033 285.344 432.035H224.965C224.513 432.032 224.08 431.85 223.762 431.529C223.443 431.209 223.263 430.776 223.262 430.324V421.597H287.047Z" fill="#3F3D56"/>
<path d="M131.665 189.724H376.518C378.621 189.726 380.638 190.562 382.127 192.049C383.615 193.536 384.454 195.552 384.459 197.656V362.885C384.457 364.991 383.62 367.01 382.131 368.499C380.642 369.988 378.623 370.825 376.518 370.826H131.665C129.559 370.825 127.54 369.988 126.051 368.499C124.562 367.01 123.725 364.991 123.723 362.885V197.656C123.728 195.552 124.567 193.536 126.055 192.049C127.544 190.563 129.561 189.726 131.665 189.724Z" fill="#3F3D56"/>
<path d="M133.712 195.459H374.48C375.606 195.461 376.685 195.91 377.481 196.708C378.277 197.505 378.724 198.585 378.724 199.712V360.847C378.722 361.972 378.274 363.05 377.478 363.846C376.683 364.641 375.605 365.089 374.48 365.091H133.712C132.587 365.089 131.508 364.641 130.713 363.846C129.917 363.05 129.47 361.972 129.468 360.847V199.712C129.468 198.585 129.915 197.505 130.71 196.708C131.506 195.91 132.585 195.461 133.712 195.459Z" fill="#6C63FF"/>
<path d="M178.023 431.894L180.247 421.332C180.339 420.902 180.538 420.501 180.824 420.166C181.111 419.832 181.477 419.575 181.888 419.418C182.186 419.301 182.503 419.241 182.823 419.241H321.626C321.946 419.241 322.264 419.301 322.562 419.418C322.973 419.575 323.339 419.832 323.626 420.166C323.912 420.501 324.111 420.902 324.203 421.332L326.426 431.894C326.507 432.278 326.501 432.674 326.408 433.055C326.316 433.436 326.14 433.791 325.894 434.095C325.647 434.399 325.335 434.645 324.982 434.814C324.628 434.982 324.242 435.07 323.85 435.071H180.609C180.216 435.073 179.827 434.986 179.473 434.816C179.118 434.646 178.807 434.398 178.562 434.091C178.314 433.788 178.138 433.433 178.045 433.053C177.952 432.673 177.944 432.277 178.023 431.894Z" fill="#2F2E41"/>
<path d="M316.628 421.143H320.178C320.416 421.143 320.609 421.336 320.609 421.574V423.36C320.609 423.598 320.416 423.79 320.178 423.79H316.628C316.39 423.79 316.197 423.598 316.197 423.36V421.574C316.197 421.336 316.39 421.143 316.628 421.143Z" fill="#3F3D56"/>
<path d="M307.805 421.143H311.355C311.593 421.143 311.786 421.336 311.786 421.574V423.36C311.786 423.598 311.593 423.79 311.355 423.79H307.805C307.567 423.79 307.374 423.598 307.374 423.36V421.574C307.374 421.336 307.567 421.143 307.805 421.143Z" fill="#3F3D56"/>
<path d="M298.981 421.143H302.531C302.769 421.143 302.962 421.336 302.962 421.574V423.36C302.962 423.598 302.769 423.79 302.531 423.79H298.981C298.743 423.79 298.55 423.598 298.55 423.36V421.574C298.55 421.336 298.743 421.143 298.981 421.143Z" fill="#3F3D56"/>
<path d="M290.157 421.143H293.708C293.946 421.143 294.138 421.336 294.138 421.574V423.36C294.138 423.598 293.946 423.79 293.708 423.79H290.157C289.92 423.79 289.727 423.598 289.727 423.36V421.574C289.727 421.336 289.92 421.143 290.157 421.143Z" fill="#3F3D56"/>
<path d="M281.334 421.143H284.884C285.122 421.143 285.315 421.336 285.315 421.574V423.36C285.315 423.598 285.122 423.79 284.884 423.79H281.334C281.096 423.79 280.903 423.598 280.903 423.36V421.574C280.903 421.336 281.096 421.143 281.334 421.143Z" fill="#3F3D56"/>
<path d="M272.51 421.143H276.061C276.299 421.143 276.491 421.336 276.491 421.574V423.36C276.491 423.598 276.299 423.79 276.061 423.79H272.51C272.273 423.79 272.08 423.598 272.08 423.36V421.574C272.08 421.336 272.273 421.143 272.51 421.143Z" fill="#3F3D56"/>
<path d="M263.687 421.143H267.237C267.475 421.143 267.668 421.336 267.668 421.574V423.36C267.668 423.598 267.475 423.79 267.237 423.79H263.687C263.449 423.79 263.256 423.598 263.256 423.36V421.574C263.256 421.336 263.449 421.143 263.687 421.143Z" fill="#3F3D56"/>
<path d="M254.863 421.143H258.414C258.652 421.143 258.844 421.336 258.844 421.574V423.36C258.844 423.598 258.652 423.79 258.414 423.79H254.863C254.626 423.79 254.433 423.598 254.433 423.36V421.574C254.433 421.336 254.626 421.143 254.863 421.143Z" fill="#3F3D56"/>
<path d="M246.04 421.143H249.59C249.828 421.143 250.021 421.336 250.021 421.574V423.36C250.021 423.598 249.828 423.79 249.59 423.79H246.04C245.802 423.79 245.609 423.598 245.609 423.36V421.574C245.609 421.336 245.802 421.143 246.04 421.143Z" fill="#3F3D56"/>
<path d="M237.216 421.143H240.767C241.004 421.143 241.197 421.336 241.197 421.574V423.36C241.197 423.598 241.004 423.79 240.767 423.79H237.216C236.978 423.79 236.786 423.598 236.786 423.36V421.574C236.786 421.336 236.978 421.143 237.216 421.143Z" fill="#3F3D56"/>
<path d="M228.393 421.143H231.943C232.181 421.143 232.374 421.336 232.374 421.574V423.36C232.374 423.598 232.181 423.79 231.943 423.79H228.393C228.155 423.79 227.962 423.598 227.962 423.36V421.574C227.962 421.336 228.155 421.143 228.393 421.143Z" fill="#3F3D56"/>
<path d="M219.569 421.143H223.12C223.357 421.143 223.55 421.336 223.55 421.574V423.36C223.55 423.598 223.357 423.79 223.12 423.79H219.569C219.331 423.79 219.139 423.598 219.139 423.36V421.574C219.139 421.336 219.331 421.143 219.569 421.143Z" fill="#3F3D56"/>
<path d="M210.746 421.143H214.296C214.534 421.143 214.727 421.336 214.727 421.574V423.36C214.727 423.598 214.534 423.79 214.296 423.79H210.746C210.508 423.79 210.315 423.598 210.315 423.36V421.574C210.315 421.336 210.508 421.143 210.746 421.143Z" fill="#3F3D56"/>
<path d="M201.922 421.143H205.473C205.71 421.143 205.903 421.336 205.903 421.574V423.36C205.903 423.598 205.71 423.79 205.473 423.79H201.922C201.684 423.79 201.492 423.598 201.492 423.36V421.574C201.492 421.336 201.684 421.143 201.922 421.143Z" fill="#3F3D56"/>
<path d="M193.099 421.143H196.649C196.887 421.143 197.08 421.336 197.08 421.574V423.36C197.08 423.598 196.887 423.79 196.649 423.79H193.099C192.861 423.79 192.668 423.598 192.668 423.36V421.574C192.668 421.336 192.861 421.143 193.099 421.143Z" fill="#3F3D56"/>
<path d="M184.275 421.143H187.825C188.063 421.143 188.256 421.336 188.256 421.574V423.36C188.256 423.598 188.063 423.79 187.825 423.79H184.275C184.037 423.79 183.844 423.598 183.844 423.36V421.574C183.844 421.336 184.037 421.143 184.275 421.143Z" fill="#3F3D56"/>
<path d="M316.732 425.555H320.283C320.521 425.555 320.713 425.748 320.713 425.986V427.771C320.713 428.009 320.521 428.202 320.283 428.202H316.732C316.494 428.202 316.302 428.009 316.302 427.771V425.986C316.302 425.748 316.494 425.555 316.732 425.555Z" fill="#3F3D56"/>
<path d="M307.909 425.555H311.459C311.697 425.555 311.89 425.748 311.89 425.986V427.771C311.89 428.009 311.697 428.202 311.459 428.202H307.909C307.671 428.202 307.478 428.009 307.478 427.771V425.986C307.478 425.748 307.671 425.555 307.909 425.555Z" fill="#3F3D56"/>
<path d="M299.085 425.555H302.636C302.874 425.555 303.066 425.748 303.066 425.986V427.771C303.066 428.009 302.874 428.202 302.636 428.202H299.085C298.847 428.202 298.655 428.009 298.655 427.771V425.986C298.655 425.748 298.847 425.555 299.085 425.555Z" fill="#3F3D56"/>
<path d="M290.262 425.555H293.812C294.05 425.555 294.243 425.748 294.243 425.986V427.771C294.243 428.009 294.05 428.202 293.812 428.202H290.262C290.024 428.202 289.831 428.009 289.831 427.771V425.986C289.831 425.748 290.024 425.555 290.262 425.555Z" fill="#3F3D56"/>
<path d="M281.438 425.555H284.988C285.226 425.555 285.419 425.748 285.419 425.986V427.771C285.419 428.009 285.226 428.202 284.988 428.202H281.438C281.2 428.202 281.007 428.009 281.007 427.771V425.986C281.007 425.748 281.2 425.555 281.438 425.555Z" fill="#3F3D56"/>
<path d="M272.615 425.555H276.165C276.403 425.555 276.596 425.748 276.596 425.986V427.771C276.596 428.009 276.403 428.202 276.165 428.202H272.615C272.377 428.202 272.184 428.009 272.184 427.771V425.986C272.184 425.748 272.377 425.555 272.615 425.555Z" fill="#3F3D56"/>
<path d="M263.791 425.555H267.341C267.579 425.555 267.772 425.748 267.772 425.986V427.771C267.772 428.009 267.579 428.202 267.341 428.202H263.791C263.553 428.202 263.36 428.009 263.36 427.771V425.986C263.36 425.748 263.553 425.555 263.791 425.555Z" fill="#3F3D56"/>
<path d="M254.968 425.555H258.518C258.756 425.555 258.949 425.748 258.949 425.986V427.771C258.949 428.009 258.756 428.202 258.518 428.202H254.968C254.73 428.202 254.537 428.009 254.537 427.771V425.986C254.537 425.748 254.73 425.555 254.968 425.555Z" fill="#3F3D56"/>
<path d="M246.144 425.555H249.694C249.932 425.555 250.125 425.748 250.125 425.986V427.771C250.125 428.009 249.932 428.202 249.694 428.202H246.144C245.906 428.202 245.713 428.009 245.713 427.771V425.986C245.713 425.748 245.906 425.555 246.144 425.555Z" fill="#3F3D56"/>
<path d="M237.321 425.555H240.871C241.109 425.555 241.302 425.748 241.302 425.986V427.771C241.302 428.009 241.109 428.202 240.871 428.202H237.321C237.083 428.202 236.89 428.009 236.89 427.771V425.986C236.89 425.748 237.083 425.555 237.321 425.555Z" fill="#3F3D56"/>
<path d="M228.497 425.555H232.047C232.285 425.555 232.478 425.748 232.478 425.986V427.771C232.478 428.009 232.285 428.202 232.047 428.202H228.497C228.259 428.202 228.066 428.009 228.066 427.771V425.986C228.066 425.748 228.259 425.555 228.497 425.555Z" fill="#3F3D56"/>
<path d="M219.674 425.555H223.224C223.462 425.555 223.655 425.748 223.655 425.986V427.771C223.655 428.009 223.462 428.202 223.224 428.202H219.674C219.436 428.202 219.243 428.009 219.243 427.771V425.986C219.243 425.748 219.436 425.555 219.674 425.555Z" fill="#3F3D56"/>
<path d="M210.85 425.555H214.4C214.638 425.555 214.831 425.748 214.831 425.986V427.771C214.831 428.009 214.638 428.202 214.4 428.202H210.85C210.612 428.202 210.419 428.009 210.419 427.771V425.986C210.419 425.748 210.612 425.555 210.85 425.555Z" fill="#3F3D56"/>
<path d="M202.027 425.555H205.577C205.815 425.555 206.008 425.748 206.008 425.986V427.771C206.008 428.009 205.815 428.202 205.577 428.202H202.027C201.789 428.202 201.596 428.009 201.596 427.771V425.986C201.596 425.748 201.789 425.555 202.027 425.555Z" fill="#3F3D56"/>
<path d="M193.203 425.555H196.753C196.991 425.555 197.184 425.748 197.184 425.986V427.771C197.184 428.009 196.991 428.202 196.753 428.202H193.203C192.965 428.202 192.772 428.009 192.772 427.771V425.986C192.772 425.748 192.965 425.555 193.203 425.555Z" fill="#3F3D56"/>
<path d="M184.379 425.555H187.93C188.168 425.555 188.36 425.748 188.36 425.986V427.771C188.36 428.009 188.168 428.202 187.93 428.202H184.379C184.142 428.202 183.949 428.009 183.949 427.771V425.986C183.949 425.748 184.142 425.555 184.379 425.555Z" fill="#3F3D56"/>
<path d="M243.497 430.849H277.93C278.167 430.849 278.36 431.042 278.36 431.28V433.066C278.36 433.303 278.167 433.496 277.93 433.496H243.497C243.259 433.496 243.066 433.303 243.066 433.066V431.28C243.066 431.042 243.259 430.849 243.497 430.849Z" fill="#3F3D56"/>
<path d="M145.81 217.656H371.096C371.33 217.651 371.553 217.554 371.717 217.387C371.88 217.219 371.972 216.994 371.972 216.76C371.972 216.526 371.88 216.301 371.717 216.133C371.553 215.966 371.33 215.869 371.096 215.864H145.81C145.576 215.869 145.353 215.966 145.19 216.133C145.026 216.301 144.934 216.526 144.934 216.76C144.934 216.994 145.026 217.219 145.19 217.387C145.353 217.554 145.576 217.651 145.81 217.656Z" fill="#3F3D56"/>
<path d="M355.76 211.29C352.861 211.29 350.51 208.887 350.51 205.922C350.51 202.958 352.861 200.555 355.76 200.555C358.66 200.555 361.011 202.958 361.011 205.922C361.011 208.887 358.66 211.29 355.76 211.29Z" fill="#3F3D56"/>
<path d="M337.623 211.29C334.723 211.29 332.372 208.887 332.372 205.922C332.372 202.958 334.723 200.555 337.623 200.555C340.522 200.555 342.873 202.958 342.873 205.922C342.873 208.887 340.522 211.29 337.623 211.29Z" fill="#3F3D56"/>
<path d="M319.485 211.29C316.585 211.29 314.235 208.887 314.235 205.922C314.235 202.958 316.585 200.555 319.485 200.555C322.385 200.555 324.735 202.958 324.735 205.922C324.735 208.887 322.385 211.29 319.485 211.29Z" fill="#3F3D56"/>
<path d="M156.732 201.882H169.615C169.869 201.888 170.112 201.994 170.29 202.176C170.468 202.358 170.567 202.603 170.567 202.857C170.567 203.112 170.468 203.357 170.29 203.539C170.112 203.721 169.869 203.826 169.615 203.832H156.732C156.476 203.829 156.232 203.724 156.052 203.542C155.872 203.36 155.771 203.114 155.771 202.857C155.771 202.601 155.872 202.355 156.052 202.173C156.232 201.99 156.476 201.886 156.732 201.882Z" fill="#3F3D56"/>
<path d="M156.732 205.544H169.615C169.87 205.55 170.112 205.655 170.29 205.837C170.469 206.019 170.568 206.264 170.568 206.519C170.568 206.774 170.469 207.019 170.29 207.201C170.112 207.383 169.87 207.488 169.615 207.494H156.732C156.476 207.491 156.231 207.387 156.05 207.204C155.87 207.022 155.769 206.776 155.769 206.519C155.769 206.263 155.87 206.016 156.05 205.834C156.231 205.651 156.476 205.547 156.732 205.544Z" fill="#3F3D56"/>
<path d="M156.732 209.206H169.615C169.869 209.212 170.112 209.317 170.29 209.499C170.468 209.682 170.567 209.926 170.567 210.181C170.567 210.436 170.468 210.68 170.29 210.862C170.112 211.045 169.869 211.15 169.615 211.156H156.732C156.476 211.152 156.232 211.048 156.052 210.865C155.872 210.683 155.771 210.437 155.771 210.181C155.771 209.925 155.872 209.679 156.052 209.496C156.232 209.314 156.476 209.209 156.732 209.206Z" fill="#3F3D56"/>
<path d="M351.67 238.476H356.299C357.703 238.476 358.841 239.614 358.841 241.018C358.841 242.421 357.703 243.559 356.299 243.559H351.67C350.267 243.559 349.129 242.421 349.129 241.018C349.129 239.614 350.267 238.476 351.67 238.476Z" fill="#E6E6E6"/>
<path d="M298.729 238.476H303.358C304.762 238.476 305.899 239.614 305.899 241.018C305.899 242.421 304.762 243.559 303.358 243.559H298.729C297.326 243.559 296.188 242.421 296.188 241.018C296.188 239.614 297.326 238.476 298.729 238.476Z" fill="#E6E6E6"/>
<path d="M283.729 238.476H288.358C289.762 238.476 290.899 239.614 290.899 241.018C290.899 242.421 289.762 243.559 288.358 243.559H283.729C282.326 243.559 281.188 242.421 281.188 241.018C281.188 239.614 282.326 238.476 283.729 238.476Z" fill="#E6E6E6"/>
<path d="M313.129 238.053H341.899C343.303 238.053 344.44 239.19 344.44 240.594C344.44 241.997 343.303 243.135 341.899 243.135H313.129C311.726 243.135 310.588 241.997 310.588 240.594C310.588 239.19 311.726 238.053 313.129 238.053Z" fill="#E6E6E6"/>
<path d="M242.541 238.053H271.311C272.714 238.053 273.852 239.19 273.852 240.594C273.852 241.997 272.714 243.135 271.311 243.135H242.541C241.138 243.135 240 241.997 240 240.594C240 239.19 241.138 238.053 242.541 238.053Z" fill="#E6E6E6"/>
<path d="M337.553 249.947H342.182C343.585 249.947 344.723 251.085 344.723 252.488C344.723 253.892 343.585 255.029 342.182 255.029H337.553C336.149 255.029 335.012 253.892 335.012 252.488C335.012 251.085 336.149 249.947 337.553 249.947Z" fill="#E6E6E6"/>
<path d="M284.612 249.947H289.241C290.644 249.947 291.782 251.085 291.782 252.488C291.782 253.892 290.644 255.029 289.241 255.029H284.612C283.208 255.029 282.07 253.892 282.07 252.488C282.07 251.085 283.208 249.947 284.612 249.947Z" fill="#E6E6E6"/>
<path d="M269.612 249.947H274.241C275.644 249.947 276.782 251.085 276.782 252.488C276.782 253.892 275.644 255.029 274.241 255.029H269.612C268.208 255.029 267.07 253.892 267.07 252.488C267.07 251.085 268.208 249.947 269.612 249.947Z" fill="#E6E6E6"/>
<path d="M299.012 249.523H327.782C329.185 249.523 330.323 250.661 330.323 252.064C330.323 253.468 329.185 254.606 327.782 254.606H299.012C297.608 254.606 296.471 253.468 296.471 252.064C296.471 250.661 297.608 249.523 299.012 249.523Z" fill="#E6E6E6"/>
<path d="M228.423 249.523H257.193C258.597 249.523 259.734 250.661 259.734 252.064C259.734 253.468 258.597 254.606 257.193 254.606H228.423C227.02 254.606 225.882 253.468 225.882 252.064C225.882 250.661 227.02 249.523 228.423 249.523Z" fill="#E6E6E6"/>
<path d="M323.435 261.418H328.064C329.468 261.418 330.605 262.555 330.605 263.959C330.605 265.362 329.468 266.5 328.064 266.5H323.435C322.032 266.5 320.894 265.362 320.894 263.959C320.894 262.555 322.032 261.418 323.435 261.418Z" fill="#E6E6E6"/>
<path d="M270.494 261.418H275.123C276.526 261.418 277.664 262.555 277.664 263.959C277.664 265.362 276.526 266.5 275.123 266.5H270.494C269.091 266.5 267.953 265.362 267.953 263.959C267.953 262.555 269.091 261.418 270.494 261.418Z" fill="#E6E6E6"/>
<path d="M255.494 261.418H260.123C261.526 261.418 262.664 262.555 262.664 263.959C262.664 265.362 261.526 266.5 260.123 266.5H255.494C254.091 266.5 252.953 265.362 252.953 263.959C252.953 262.555 254.091 261.418 255.494 261.418Z" fill="#E6E6E6"/>
<path d="M284.894 260.994H313.664C315.067 260.994 316.205 262.132 316.205 263.535C316.205 264.938 315.067 266.076 313.664 266.076H284.894C283.491 266.076 282.353 264.938 282.353 263.535C282.353 262.132 283.491 260.994 284.894 260.994Z" fill="#E6E6E6"/>
<path d="M214.306 260.994H243.076C244.479 260.994 245.617 262.132 245.617 263.535C245.617 264.938 244.479 266.076 243.076 266.076H214.306C212.902 266.076 211.765 264.938 211.765 263.535C211.765 262.132 212.902 260.994 214.306 260.994Z" fill="#E6E6E6"/>
<path d="M309.317 272.888H313.946C315.35 272.888 316.488 274.026 316.488 275.429C316.488 276.833 315.35 277.97 313.946 277.97H309.317C307.914 277.97 306.776 276.833 306.776 275.429C306.776 274.026 307.914 272.888 309.317 272.888Z" fill="#E6E6E6"/>
<path d="M256.376 272.888H261.005C262.409 272.888 263.546 274.026 263.546 275.429C263.546 276.833 262.409 277.97 261.005 277.97H256.376C254.973 277.97 253.835 276.833 253.835 275.429C253.835 274.026 254.973 272.888 256.376 272.888Z" fill="#E6E6E6"/>
<path d="M241.376 272.888H246.005C247.409 272.888 248.546 274.026 248.546 275.429C248.546 276.833 247.409 277.97 246.005 277.97H241.376C239.973 277.97 238.835 276.833 238.835 275.429C238.835 274.026 239.973 272.888 241.376 272.888Z" fill="#E6E6E6"/>
<path d="M270.776 272.464H299.546C300.95 272.464 302.087 273.602 302.087 275.006C302.087 276.409 300.95 277.547 299.546 277.547H270.776C269.373 277.547 268.235 276.409 268.235 275.006C268.235 273.602 269.373 272.464 270.776 272.464Z" fill="#E6E6E6"/>
<path d="M298.729 318.5H303.358C304.762 318.5 305.899 319.638 305.899 321.041C305.899 322.445 304.762 323.582 303.358 323.582H298.729C297.326 323.582 296.188 322.445 296.188 321.041C296.188 319.638 297.326 318.5 298.729 318.5Z" fill="#E6E6E6"/>
<path d="M283.729 318.5H288.358C289.762 318.5 290.899 319.638 290.899 321.041C290.899 322.445 289.762 323.582 288.358 323.582H283.729C282.326 323.582 281.188 322.445 281.188 321.041C281.188 319.638 282.326 318.5 283.729 318.5Z" fill="#E6E6E6"/>
<path d="M242.541 318.924H271.311C272.714 318.924 273.852 320.062 273.852 321.465C273.852 322.868 272.714 324.006 271.311 324.006H242.541C241.138 324.006 240 322.868 240 321.465C240 320.062 241.138 318.924 242.541 318.924Z" fill="#E6E6E6"/>
<path d="M351.67 318.5H356.299C357.703 318.5 358.841 319.638 358.841 321.041C358.841 322.445 357.703 323.582 356.299 323.582H351.67C350.267 323.582 349.129 322.445 349.129 321.041C349.129 319.638 350.267 318.5 351.67 318.5Z" fill="#E6E6E6"/>
<path d="M313.129 318.924H341.899C343.303 318.924 344.44 320.062 344.44 321.465C344.44 322.868 343.303 324.006 341.899 324.006H313.129C311.726 324.006 310.588 322.868 310.588 321.465C310.588 320.062 311.726 318.924 313.129 318.924Z" fill="#E6E6E6"/>
<path d="M337.553 307.03H342.182C343.585 307.03 344.723 308.167 344.723 309.571C344.723 310.974 343.585 312.112 342.182 312.112H337.553C336.149 312.112 335.012 310.974 335.012 309.571C335.012 308.167 336.149 307.03 337.553 307.03Z" fill="#E6E6E6"/>
<path d="M284.612 307.03H289.241C290.644 307.03 291.782 308.167 291.782 309.571C291.782 310.974 290.644 312.112 289.241 312.112H284.612C283.208 312.112 282.07 310.974 282.07 309.571C282.07 308.167 283.208 307.03 284.612 307.03Z" fill="#E6E6E6"/>
<path d="M269.612 307.03H274.241C275.644 307.03 276.782 308.167 276.782 309.571C276.782 310.974 275.644 312.112 274.241 312.112H269.612C268.208 312.112 267.07 310.974 267.07 309.571C267.07 308.167 268.208 307.03 269.612 307.03Z" fill="#E6E6E6"/>
<path d="M299.012 307.453H327.782C329.185 307.453 330.323 308.591 330.323 309.994C330.323 311.398 329.185 312.535 327.782 312.535H299.012C297.608 312.535 296.471 311.398 296.471 309.994C296.471 308.591 297.608 307.453 299.012 307.453Z" fill="#E6E6E6"/>
<path d="M323.435 295.559H328.064C329.468 295.559 330.605 296.697 330.605 298.1C330.605 299.504 329.468 300.641 328.064 300.641H323.435C322.032 300.641 320.894 299.504 320.894 298.1C320.894 296.697 322.032 295.559 323.435 295.559Z" fill="#E6E6E6"/>
<path d="M270.494 295.559H275.123C276.526 295.559 277.664 296.697 277.664 298.1C277.664 299.504 276.526 300.641 275.123 300.641H270.494C269.091 300.641 267.953 299.504 267.953 298.1C267.953 296.697 269.091 295.559 270.494 295.559Z" fill="#E6E6E6"/>
<path d="M255.494 295.559H260.123C261.526 295.559 262.664 296.697 262.664 298.1C262.664 299.504 261.526 300.641 260.123 300.641H255.494C254.091 300.641 252.953 299.504 252.953 298.1C252.953 296.697 254.091 295.559 255.494 295.559Z" fill="#E6E6E6"/>
<path d="M284.894 295.983H313.664C315.067 295.983 316.205 297.12 316.205 298.524C316.205 299.927 315.067 301.065 313.664 301.065H284.894C283.491 301.065 282.353 299.927 282.353 298.524C282.353 297.12 283.491 295.983 284.894 295.983Z" fill="#E6E6E6"/>
<path d="M309.317 284.088H313.946C315.35 284.088 316.488 285.226 316.488 286.63C316.488 288.033 315.35 289.171 313.946 289.171H309.317C307.914 289.171 306.776 288.033 306.776 286.63C306.776 285.226 307.914 284.088 309.317 284.088Z" fill="#E6E6E6"/>
<path d="M256.376 284.088H261.005C262.409 284.088 263.546 285.226 263.546 286.63C263.546 288.033 262.409 289.171 261.005 289.171H256.376C254.973 289.171 253.835 288.033 253.835 286.63C253.835 285.226 254.973 284.088 256.376 284.088Z" fill="#E6E6E6"/>
<path d="M241.376 284.088H246.005C247.409 284.088 248.546 285.226 248.546 286.63C248.546 288.033 247.409 289.171 246.005 289.171H241.376C239.973 289.171 238.835 288.033 238.835 286.63C238.835 285.226 239.973 284.088 241.376 284.088Z" fill="#E6E6E6"/>
<path d="M270.776 284.512H299.546C300.95 284.512 302.087 285.65 302.087 287.053C302.087 288.457 300.95 289.594 299.546 289.594H270.776C269.373 289.594 268.235 288.457 268.235 287.053C268.235 285.65 269.373 284.512 270.776 284.512Z" fill="#E6E6E6"/>
<path d="M143.109 484.209C143.647 484.482 144.194 484.756 144.732 485.021C158.674 491.991 169.826 495.953 185.082 500.294C186.371 485.912 187.615 460.632 188.823 444.962C189.141 440.894 189.459 437.479 189.768 435.071C189.846 433.79 190.107 432.527 190.544 431.321L190.491 435.071L190.359 444.962L189.591 501.529C208.568 506.551 228.063 509.36 247.685 509.903C248.709 509.929 249.715 509.947 250.685 509.965C251.029 509.974 251.365 509.982 251.7 509.982C252.803 509.991 253.897 510 255 510C275.679 510.015 296.283 507.518 316.359 502.562C315.926 488.329 315.494 463.332 315.079 444.962C314.991 441.371 314.912 438.026 314.823 435.071C314.656 428.753 314.479 424.2 314.312 422.674C314.46 422.944 314.576 423.231 314.656 423.529C315.473 427.334 316.03 431.19 316.323 435.071C316.632 438.026 316.941 441.371 317.25 444.962C318.891 464.047 320.603 489.997 322.368 501C332.871 498.132 343.178 494.587 353.223 490.385C358.518 488.179 363.718 485.8 368.823 483.247C367.853 476.894 366.838 469.773 365.797 462.388C364.985 456.662 364.147 450.776 363.291 444.962C361.968 435.979 360.609 427.174 359.232 419.418C357.221 408.088 355.156 398.982 353.109 394.8C351.168 390.829 349.226 386.912 347.347 383.162C346.694 381.847 346.041 380.55 345.406 379.288C345.256 378.988 345.106 378.697 344.956 378.406C343.606 375.75 342.3 373.209 341.056 370.826C339.988 368.788 338.973 366.865 338.012 365.091C335.682 360.785 333.706 357.353 332.241 355.182C326.118 345.894 317.001 338.979 306.406 335.585L306.141 335.515L305.956 335.594L287.912 330.053L285.273 329.241L283.5 328.694L277.253 323.938L273.856 321.353L270.671 318.926L264.441 314.188L225.873 316.562L218.365 334.641L201.547 340.791L201.256 340.659L201 340.553L200.735 340.623C190.141 344.02 181.026 350.934 174.9 360.221C174.071 361.465 173.065 363.106 171.926 365.091C170.956 366.776 169.897 368.7 168.75 370.826C167.118 373.853 165.335 377.268 163.447 380.965C163.032 381.776 162.609 382.606 162.185 383.444C161.4 384.997 160.603 386.582 159.794 388.2C157.915 391.95 155.973 395.868 154.032 399.847C152.347 403.297 150.644 410.391 148.968 419.418C147.582 426.918 146.206 435.759 144.873 444.962C143.126 456.891 144.988 471.176 143.409 482.153C143.312 482.85 143.206 483.529 143.109 484.209Z" fill="#3F3D56"/>
<path d="M254.457 299.757C229.684 299.757 209.602 279.675 209.602 254.901C209.602 230.128 229.684 210.046 254.457 210.046C279.23 210.046 299.313 230.128 299.313 254.901C299.313 279.675 279.23 299.757 254.457 299.757Z" fill="#A0616A"/>
<path d="M180.485 195.459C181.372 193.389 182.552 191.457 183.988 189.724C190.8 181.403 203.188 177.741 215.903 187.588C218.35 187.041 220.902 187.188 223.271 188.012C224.389 188.417 225.437 188.994 226.377 189.724C228.302 191.225 229.804 193.202 230.735 195.459C231.233 196.651 231.56 197.908 231.706 199.191C234.849 197.558 238.175 196.305 241.615 195.459C250.054 193.36 258.879 193.36 267.318 195.459C270.022 196.143 272.626 197.175 275.065 198.529C279.194 200.912 281.568 203.921 281.991 207.265C287.947 207.6 294.141 210.732 298.756 215.868C299.277 216.441 299.779 217.041 300.247 217.659C304.128 222.737 306.213 228.959 306.177 235.35V236.471H305.056C301.986 236.468 298.944 237.061 296.1 238.218C294.257 238.958 292.512 239.921 290.903 241.085C289.85 241.832 288.856 242.658 287.929 243.556C285.78 245.637 283.96 248.031 282.529 250.659C278.864 257.298 277.592 264.996 278.929 272.462C279.236 274.19 279.685 275.89 280.271 277.544C281.104 279.905 282.202 282.163 283.544 284.276C283.597 284.356 283.641 284.435 283.694 284.515C284.285 285.459 284.85 286.421 285.379 287.391C285.777 288.115 286.147 288.856 286.491 289.597C287.497 291.66 288.346 293.795 289.032 295.985C290.26 299.859 290.984 303.874 291.185 307.932C291.247 309.009 291.265 310.085 291.229 311.162C291.177 313.937 290.873 316.701 290.321 319.421C290.241 319.791 290.162 320.153 290.082 320.524L289.438 323.338L287.912 330.053L286.853 334.677L285.874 338.965L284.427 336.891C283.932 336.185 282.688 334.015 281.021 330.944C279.918 328.941 278.638 326.55 277.253 323.938C275.321 320.277 273.203 316.191 271.13 312.115C270.291 310.465 269.462 308.824 268.659 307.218C267.141 304.174 265.712 301.235 264.485 298.624C263.356 296.215 262.394 294.079 261.679 292.368C261.459 293.488 261.274 294.627 261.132 295.774C260.974 296.938 260.859 298.121 260.797 299.303C260.779 299.479 260.771 299.665 260.762 299.841L260.727 300.565L260.718 300.777L259.782 300.9C254.388 301.478 248.95 301.519 243.547 301.024H243.538C236.381 300.485 229.36 298.783 222.75 295.985C218.996 294.357 215.491 292.206 212.338 289.597C210.865 288.378 209.49 287.044 208.227 285.609C207.909 285.247 207.6 284.885 207.3 284.515C205.554 282.369 204.059 280.03 202.844 277.544C202.031 275.904 201.341 274.205 200.779 272.462C197.391 262.2 197.585 249.397 201.362 234.185C200.342 233.989 199.365 233.612 198.477 233.074C195.706 231.406 193.782 228.097 193.182 224.056L192.229 224.312C188.851 222.738 185.842 220.472 183.397 217.659C182.913 217.086 182.459 216.488 182.038 215.868C177.724 209.515 177.688 201.891 180.485 195.459Z" fill="#2F2E41"/>
<path opacity="0.2" d="M327.953 419.379L320.456 390.445L313.835 415.412L327.953 419.379Z" fill="black"/>
<path d="M128.444 400.526C131.126 437.479 128.347 453.75 143.153 484.218C156.624 490.811 170.656 496.191 185.082 500.294C186.582 500.718 188.085 501.129 189.591 501.529C208.568 506.551 228.062 509.36 247.685 509.903C248.709 509.929 249.715 509.947 250.685 509.965C251.029 509.974 251.365 509.982 251.7 509.982C252.803 509.991 253.897 510 255 510C275.679 510.015 296.283 507.518 316.359 502.562C318.37 502.068 320.373 501.547 322.368 501C332.871 498.132 343.178 494.587 353.223 490.385C358.518 488.179 363.718 485.8 368.823 483.247C369.979 482.665 371.135 482.082 372.273 481.482C378.123 471.194 381.45 458.682 381.521 443.647C377.471 417.741 137.391 378.185 128.444 400.526Z" fill="#2F2E41"/>
<path opacity="0.2" d="M128.451 406.855C128.314 404.567 128.161 402.204 127.982 399.743C136.929 377.402 377.009 416.958 381.059 442.864C381.048 445.239 380.946 447.544 380.775 449.794C370.967 424.225 142.889 386.63 128.451 406.855Z" fill="black"/>
<path d="M366.092 301.898C366.034 301.098 366.147 300.295 366.425 299.543C366.703 298.79 367.139 298.106 367.704 297.537C368.268 296.967 368.948 296.525 369.698 296.24C370.448 295.955 371.25 295.834 372.05 295.885C372.349 295.896 372.645 295.933 372.937 295.996L408.021 303.921C408.805 304.112 409.541 304.464 410.18 304.955C410.82 305.447 411.35 306.067 411.735 306.776C412.249 306.795 412.76 306.87 413.259 306.998C414.351 307.245 415.383 307.705 416.297 308.351C417.211 308.998 417.989 309.818 418.586 310.765C419.183 311.712 419.588 312.767 419.777 313.871C419.966 314.974 419.936 316.104 419.689 317.196C419.441 318.288 418.981 319.32 418.335 320.234C417.688 321.148 416.868 321.926 415.921 322.523C414.008 323.728 411.695 324.125 409.49 323.625C408.235 323.334 407.061 322.766 406.054 321.962L394.165 355.439C393.571 356.489 392.654 357.317 391.55 357.802C390.446 358.286 389.215 358.401 388.041 358.128L365.233 352.973C364.068 352.7 363.019 352.065 362.237 351.159C361.456 350.252 360.981 349.122 360.882 347.929L366.092 301.898ZM410.017 321.242C411.592 321.597 413.243 321.313 414.609 320.453C415.975 319.593 416.944 318.226 417.303 316.652C417.663 315.078 417.383 313.426 416.527 312.058C415.67 310.689 414.305 309.717 412.733 309.353C412.622 309.325 412.511 309.353 412.4 309.325C412.408 310.335 412.15 311.329 411.652 312.208L407.301 319.801C408.058 320.519 408.997 321.017 410.017 321.242Z" fill="#2F2E41"/>
<path d="M372.051 295.885C371.718 300.319 379.311 305.418 389.482 307.441C398.821 309.353 407.19 308.023 409.546 304.531C409.072 304.25 408.558 304.045 408.022 303.921L372.937 295.996C372.646 295.933 372.349 295.896 372.051 295.885Z" fill="#3F3D56"/>
<path d="M396.315 408.446L376.608 398.593L393.03 354.254L397.358 331.893C397.92 328.988 399.235 326.282 401.171 324.044C403.107 321.806 405.597 320.116 408.391 319.142C411.185 318.167 414.186 317.943 417.093 318.492C420.001 319.041 422.713 320.343 424.96 322.269C428.289 325.123 430.38 329.158 430.79 333.524C431.2 337.889 429.899 342.244 427.159 345.668L411.094 365.749L396.315 408.446Z" fill="#A0616A"/>
<path d="M376.608 390.382L402.883 403.519L382.943 465.998C381.512 470.484 378.945 474.525 375.492 477.727C372.039 480.93 367.817 483.186 363.235 484.277C357.586 485.622 351.656 485.133 346.303 482.881C340.951 480.628 336.455 476.73 333.467 471.75L280.592 381.12C276.845 374.875 275.689 367.412 277.37 360.326C279.05 353.24 283.436 347.092 289.588 343.195C292.898 341.099 296.611 339.724 300.487 339.158C304.363 338.592 308.314 338.849 312.084 339.911C315.855 340.974 319.359 342.818 322.369 345.325C325.379 347.831 327.828 350.943 329.556 354.458L361.829 423.226L376.608 390.382Z" fill="#3F3D56"/>
<path d="M384.735 333.919C384.784 333.919 384.832 333.911 384.879 333.895L390.615 331.92C390.685 331.896 390.747 331.856 390.796 331.802C390.846 331.748 390.882 331.682 390.9 331.611C390.918 331.54 390.918 331.466 390.9 331.395C390.882 331.324 390.846 331.259 390.797 331.205L386.53 326.559C386.491 326.516 386.444 326.482 386.391 326.457C386.339 326.432 386.282 326.418 386.224 326.416C386.166 326.413 386.108 326.422 386.053 326.442C385.999 326.462 385.948 326.492 385.906 326.531C385.863 326.57 385.828 326.618 385.804 326.671C385.779 326.723 385.766 326.78 385.763 326.838C385.761 326.896 385.77 326.954 385.79 327.009C385.81 327.063 385.841 327.113 385.88 327.156L389.691 331.305L384.592 333.061C384.493 333.095 384.41 333.163 384.356 333.252C384.303 333.342 384.283 333.448 384.3 333.551C384.317 333.654 384.37 333.747 384.45 333.815C384.53 333.882 384.631 333.919 384.735 333.919Z" fill="#6C63FF"/>
<path d="M376.872 332.309C376.96 332.309 377.046 332.283 377.119 332.234C377.191 332.185 377.248 332.115 377.281 332.034C377.314 331.952 377.322 331.863 377.304 331.777C377.285 331.691 377.242 331.612 377.179 331.551L373.301 327.802L378.51 325.655C378.564 325.633 378.612 325.601 378.654 325.56C378.695 325.519 378.727 325.471 378.75 325.417C378.772 325.364 378.784 325.306 378.784 325.249C378.784 325.191 378.773 325.133 378.75 325.08C378.728 325.026 378.696 324.977 378.655 324.936C378.614 324.895 378.565 324.863 378.512 324.84C378.458 324.818 378.401 324.807 378.343 324.807C378.285 324.807 378.228 324.818 378.174 324.84L372.342 327.244C372.274 327.271 372.215 327.316 372.168 327.372C372.122 327.429 372.091 327.496 372.077 327.568C372.063 327.64 372.067 327.715 372.089 327.784C372.112 327.854 372.151 327.917 372.203 327.968L376.565 332.185C376.647 332.265 376.758 332.309 376.872 332.309Z" fill="#6C63FF"/>
<path d="M383.531 336.618C383.575 336.618 383.619 336.611 383.661 336.598C383.716 336.581 383.768 336.553 383.812 336.516C383.857 336.479 383.894 336.434 383.921 336.383C383.948 336.331 383.965 336.275 383.97 336.218C383.976 336.16 383.97 336.102 383.953 336.046L379.881 322.811C379.846 322.7 379.769 322.606 379.665 322.552C379.562 322.498 379.441 322.486 379.33 322.521C379.218 322.555 379.125 322.633 379.07 322.736C379.015 322.839 379.003 322.96 379.037 323.071L383.109 336.307C383.137 336.397 383.193 336.475 383.269 336.531C383.345 336.587 383.437 336.618 383.531 336.618Z" fill="#6C63FF"/>
</g>
<defs>
<clipPath id="clip0_26_116">
<rect width="510" height="510" fill="white" transform="matrix(-1 0 0 1 510 0)"/>
</clipPath>
</defs>
</svg>
